<svg width="376" height="376" viewBox="0 0 376 376" fill="none" xmlns="http://www.w3.org/2000/svg">
<mask id="path-1-outside-1_203_161" maskUnits="userSpaceOnUse" x="0" y="0" width="376" height="376" fill="black">
<rect fill="white" width="376" height="376"/>
<path d="M4 4H124V124H4V4Z"/>
<path d="M128 4H248V124H128V4Z"/>
<path d="M252 4H372V124H252V4Z"/>
<path d="M4 128H124V248H4V128Z"/>
<path d="M128 128H248V248H128V128Z"/>
<path d="M252 128H372V248H252V128Z"/>
<path d="M4 252H124V372H4V252Z"/>
<path d="M128 252H248V372H128V252Z"/>
<path d="M252 252H372V372H252V252Z"/>
<path d="M114 188C114 198.266 111.843 207.138 107.529 214.616C103.215 222.094 97.2965 227.861 89.7743 231.916C82.2522 235.972 73.6608 238 64 238C54.3392 238 45.7478 235.972 38.2257 231.916C30.7035 227.861 24.7854 222.094 20.4712 214.616C16.1571 207.138 14 198.266 14 188C14 177.734 16.1571 168.862 20.4712 161.384C24.7854 153.906 30.7035 148.139 38.2257 144.084C45.7478 140.028 54.3392 138 64 138C73.6608 138 82.2522 140.028 89.7743 144.084C97.2965 148.139 103.215 153.906 107.529 161.384C111.843 168.862 114 177.734 114 188ZM100.726 188C100.726 179.572 99.0848 172.458 95.8031 166.66C92.5583 160.861 88.1519 156.473 82.5841 153.494C77.0531 150.516 70.8584 149.027 64 149.027C57.1416 149.027 50.9285 150.516 45.3606 153.494C39.8296 156.473 35.4233 160.861 32.1416 166.66C28.8968 172.458 27.2743 179.572 27.2743 188C27.2743 196.428 28.8968 203.542 32.1416 209.34C35.4233 215.139 39.8296 219.527 45.3606 222.506C50.9285 225.484 57.1416 226.973 64 226.973C70.8584 226.973 77.0531 225.484 82.5841 222.506C88.1519 219.527 92.5583 215.139 95.8031 209.34C99.0848 203.542 100.726 196.428 100.726 188Z"/>
<path d="M35.25 14L64 54.8854L92.75 14H114L75.25 64L114 114H92.75L64 75.1979L35.25 114H14L52.125 64L14 14H35.25Z"/>
<path d="M159.25 14L188 54.8854L216.75 14H238L199.25 64L238 114H216.75L188 75.1979L159.25 114H138L176.125 64L138 14H159.25Z"/>
<path d="M159.25 262L188 302.885L216.75 262H238L199.25 312L238 362H216.75L188 323.198L159.25 362H138L176.125 312L138 262H159.25Z"/>
<path d="M283.25 138L312 178.885L340.75 138H362L323.25 188L362 238H340.75L312 199.198L283.25 238H262L300.125 188L262 138H283.25Z"/>
<path d="M35.25 262L64 302.885L92.75 262H114L75.25 312L114 362H92.75L64 323.198L35.25 362H14L52.125 312L14 262H35.25Z"/>
<path d="M238 188C238 198.266 235.843 207.138 231.529 214.616C227.215 222.094 221.296 227.861 213.774 231.916C206.252 235.972 197.661 238 188 238C178.339 238 169.748 235.972 162.226 231.916C154.704 227.861 148.785 222.094 144.471 214.616C140.157 207.138 138 198.266 138 188C138 177.734 140.157 168.862 144.471 161.384C148.785 153.906 154.704 148.139 162.226 144.084C169.748 140.028 178.339 138 188 138C197.661 138 206.252 140.028 213.774 144.084C221.296 148.139 227.215 153.906 231.529 161.384C235.843 168.862 238 177.734 238 188ZM224.726 188C224.726 179.572 223.085 172.458 219.803 166.66C216.558 160.861 212.152 156.473 206.584 153.494C201.053 150.516 194.858 149.027 188 149.027C181.142 149.027 174.928 150.516 169.361 153.494C163.83 156.473 159.423 160.861 156.142 166.66C152.897 172.458 151.274 179.572 151.274 188C151.274 196.428 152.897 203.542 156.142 209.34C159.423 215.139 163.83 219.527 169.361 222.506C174.928 225.484 181.142 226.973 188 226.973C194.858 226.973 201.053 225.484 206.584 222.506C212.152 219.527 216.558 215.139 219.803 209.34C223.085 203.542 224.726 196.428 224.726 188Z"/>
<path d="M362 312C362 322.266 359.843 331.138 355.529 338.616C351.215 346.094 345.296 351.861 337.774 355.916C330.252 359.972 321.661 362 312 362C302.339 362 293.748 359.972 286.226 355.916C278.704 351.861 272.785 346.094 268.471 338.616C264.157 331.138 262 322.266 262 312C262 301.734 264.157 292.862 268.471 285.384C272.785 277.906 278.704 272.139 286.226 268.084C293.748 264.028 302.339 262 312 262C321.661 262 330.252 264.028 337.774 268.084C345.296 272.139 351.215 277.906 355.529 285.384C359.843 292.862 362 301.734 362 312ZM348.726 312C348.726 303.572 347.085 296.458 343.803 290.66C340.558 284.861 336.152 280.473 330.584 277.494C325.053 274.516 318.858 273.027 312 273.027C305.142 273.027 298.928 274.516 293.361 277.494C287.83 280.473 283.423 284.861 280.142 290.66C276.897 296.458 275.274 303.572 275.274 312C275.274 320.428 276.897 327.542 280.142 333.34C283.423 339.139 287.83 343.527 293.361 346.506C298.928 349.484 305.142 350.973 312 350.973C318.858 350.973 325.053 349.484 330.584 346.506C336.152 343.527 340.558 339.139 343.803 333.34C347.085 327.542 348.726 320.428 348.726 312Z"/>
<path d="M362 64C362 74.2662 359.843 83.1381 355.529 90.616C351.215 98.0938 345.296 103.861 337.774 107.916C330.252 111.972 321.661 114 312 114C302.339 114 293.748 111.972 286.226 107.916C278.704 103.861 272.785 98.0938 268.471 90.616C264.157 83.1381 262 74.2662 262 64C262 53.7338 264.157 44.8619 268.471 37.384C272.785 29.9062 278.704 24.1394 286.226 20.0837C293.748 16.0279 302.339 14 312 14C321.661 14 330.252 16.0279 337.774 20.0837C345.296 24.1394 351.215 29.9062 355.529 37.384C359.843 44.8619 362 53.7338 362 64ZM348.726 64C348.726 55.5716 347.085 48.4582 343.803 42.6597C340.558 36.8612 336.152 32.4728 330.584 29.4943C325.053 26.5158 318.858 25.0266 312 25.0266C305.142 25.0266 298.928 26.5158 293.361 29.4943C287.83 32.4728 283.423 36.8612 280.142 42.6597C276.897 48.4582 275.274 55.5716 275.274 64C275.274 72.4284 276.897 79.5418 280.142 85.3403C283.423 91.1388 287.83 95.5273 293.361 98.5057C298.928 101.484 305.142 102.973 312 102.973C318.858 102.973 325.053 101.484 330.584 98.5057C336.152 95.5273 340.558 91.1388 343.803 85.3403C347.085 79.5418 348.726 72.4284 348.726 64Z"/>
</mask>
<path d="M114 188C114 198.266 111.843 207.138 107.529 214.616C103.215 222.094 97.2965 227.861 89.7743 231.916C82.2522 235.972 73.6608 238 64 238C54.3392 238 45.7478 235.972 38.2257 231.916C30.7035 227.861 24.7854 222.094 20.4712 214.616C16.1571 207.138 14 198.266 14 188C14 177.734 16.1571 168.862 20.4712 161.384C24.7854 153.906 30.7035 148.139 38.2257 144.084C45.7478 140.028 54.3392 138 64 138C73.6608 138 82.2522 140.028 89.7743 144.084C97.2965 148.139 103.215 153.906 107.529 161.384C111.843 168.862 114 177.734 114 188ZM100.726 188C100.726 179.572 99.0848 172.458 95.8031 166.66C92.5583 160.861 88.1519 156.473 82.5841 153.494C77.0531 150.516 70.8584 149.027 64 149.027C57.1416 149.027 50.9285 150.516 45.3606 153.494C39.8296 156.473 35.4233 160.861 32.1416 166.66C28.8968 172.458 27.2743 179.572 27.2743 188C27.2743 196.428 28.8968 203.542 32.1416 209.34C35.4233 215.139 39.8296 219.527 45.3606 222.506C50.9285 225.484 57.1416 226.973 64 226.973C70.8584 226.973 77.0531 225.484 82.5841 222.506C88.1519 219.527 92.5583 215.139 95.8031 209.34C99.0848 203.542 100.726 196.428 100.726 188Z" fill="black"/>
<path d="M35.25 14L64 54.8854L92.75 14H114L75.25 64L114 114H92.75L64 75.1979L35.25 114H14L52.125 64L14 14H35.25Z" fill="black"/>
<path d="M159.25 14L188 54.8854L216.75 14H238L199.25 64L238 114H216.75L188 75.1979L159.25 114H138L176.125 64L138 14H159.25Z" fill="black"/>
<path d="M159.25 262L188 302.885L216.75 262H238L199.25 312L238 362H216.75L188 323.198L159.25 362H138L176.125 312L138 262H159.25Z" fill="black"/>
<path d="M283.25 138L312 178.885L340.75 138H362L323.25 188L362 238H340.75L312 199.198L283.25 238H262L300.125 188L262 138H283.25Z" fill="black"/>
<path d="M35.25 262L64 302.885L92.75 262H114L75.25 312L114 362H92.75L64 323.198L35.25 362H14L52.125 312L14 262H35.25Z" fill="black"/>
<path d="M238 188C238 198.266 235.843 207.138 231.529 214.616C227.215 222.094 221.296 227.861 213.774 231.916C206.252 235.972 197.661 238 188 238C178.339 238 169.748 235.972 162.226 231.916C154.704 227.861 148.785 222.094 144.471 214.616C140.157 207.138 138 198.266 138 188C138 177.734 140.157 168.862 144.471 161.384C148.785 153.906 154.704 148.139 162.226 144.084C169.748 140.028 178.339 138 188 138C197.661 138 206.252 140.028 213.774 144.084C221.296 148.139 227.215 153.906 231.529 161.384C235.843 168.862 238 177.734 238 188ZM224.726 188C224.726 179.572 223.085 172.458 219.803 166.66C216.558 160.861 212.152 156.473 206.584 153.494C201.053 150.516 194.858 149.027 188 149.027C181.142 149.027 174.928 150.516 169.361 153.494C163.83 156.473 159.423 160.861 156.142 166.66C152.897 172.458 151.274 179.572 151.274 188C151.274 196.428 152.897 203.542 156.142 209.34C159.423 215.139 163.83 219.527 169.361 222.506C174.928 225.484 181.142 226.973 188 226.973C194.858 226.973 201.053 225.484 206.584 222.506C212.152 219.527 216.558 215.139 219.803 209.34C223.085 203.542 224.726 196.428 224.726 188Z" fill="black"/>
<path d="M362 312C362 322.266 359.843 331.138 355.529 338.616C351.215 346.094 345.296 351.861 337.774 355.916C330.252 359.972 321.661 362 312 362C302.339 362 293.748 359.972 286.226 355.916C278.704 351.861 272.785 346.094 268.471 338.616C264.157 331.138 262 322.266 262 312C262 301.734 264.157 292.862 268.471 285.384C272.785 277.906 278.704 272.139 286.226 268.084C293.748 264.028 302.339 262 312 262C321.661 262 330.252 264.028 337.774 268.084C345.296 272.139 351.215 277.906 355.529 285.384C359.843 292.862 362 301.734 362 312ZM348.726 312C348.726 303.572 347.085 296.458 343.803 290.66C340.558 284.861 336.152 280.473 330.584 277.494C325.053 274.516 318.858 273.027 312 273.027C305.142 273.027 298.928 274.516 293.361 277.494C287.83 280.473 283.423 284.861 280.142 290.66C276.897 296.458 275.274 303.572 275.274 312C275.274 320.428 276.897 327.542 280.142 333.34C283.423 339.139 287.83 343.527 293.361 346.506C298.928 349.484 305.142 350.973 312 350.973C318.858 350.973 325.053 349.484 330.584 346.506C336.152 343.527 340.558 339.139 343.803 333.34C347.085 327.542 348.726 320.428 348.726 312Z" fill="black"/>
<path d="M362 64C362 74.2662 359.843 83.1381 355.529 90.616C351.215 98.0938 345.296 103.861 337.774 107.916C330.252 111.972 321.661 114 312 114C302.339 114 293.748 111.972 286.226 107.916C278.704 103.861 272.785 98.0938 268.471 90.616C264.157 83.1381 262 74.2662 262 64C262 53.7338 264.157 44.8619 268.471 37.384C272.785 29.9062 278.704 24.1394 286.226 20.0837C293.748 16.0279 302.339 14 312 14C321.661 14 330.252 16.0279 337.774 20.0837C345.296 24.1394 351.215 29.9062 355.529 37.384C359.843 44.8619 362 53.7338 362 64ZM348.726 64C348.726 55.5716 347.085 48.4582 343.803 42.6597C340.558 36.8612 336.152 32.4728 330.584 29.4943C325.053 26.5158 318.858 25.0266 312 25.0266C305.142 25.0266 298.928 26.5158 293.361 29.4943C287.83 32.4728 283.423 36.8612 280.142 42.6597C276.897 48.4582 275.274 55.5716 275.274 64C275.274 72.4284 276.897 79.5418 280.142 85.3403C283.423 91.1388 287.83 95.5273 293.361 98.5057C298.928 101.484 305.142 102.973 312 102.973C318.858 102.973 325.053 101.484 330.584 98.5057C336.152 95.5273 340.558 91.1388 343.803 85.3403C347.085 79.5418 348.726 72.4284 348.726 64Z" fill="black"/>
<path d="M4 4H124V124H4V4Z" stroke="black" stroke-width="8" mask="url(#path-1-outside-1_203_161)"/>
<path d="M128 4H248V124H128V4Z" stroke="black" stroke-width="8" mask="url(#path-1-outside-1_203_161)"/>
<path d="M252 4H372V124H252V4Z" stroke="black" stroke-width="8" mask="url(#path-1-outside-1_203_161)"/>
<path d="M4 128H124V248H4V128Z" stroke="black" stroke-width="8" mask="url(#path-1-outside-1_203_161)"/>
<path d="M128 128H248V248H128V128Z" stroke="black" stroke-width="8" mask="url(#path-1-outside-1_203_161)"/>
<path d="M252 128H372V248H252V128Z" stroke="black" stroke-width="8" mask="url(#path-1-outside-1_203_161)"/>
<path d="M4 252H124V372H4V252Z" stroke="black" stroke-width="8" mask="url(#path-1-outside-1_203_161)"/>
<path d="M128 252H248V372H128V252Z" stroke="black" stroke-width="8" mask="url(#path-1-outside-1_203_161)"/>
<path d="M252 252H372V372H252V252Z" stroke="black" stroke-width="8" mask="url(#path-1-outside-1_203_161)"/>
<path d="M114 188C114 198.266 111.843 207.138 107.529 214.616C103.215 222.094 97.2965 227.861 89.7743 231.916C82.2522 235.972 73.6608 238 64 238C54.3392 238 45.7478 235.972 38.2257 231.916C30.7035 227.861 24.7854 222.094 20.4712 214.616C16.1571 207.138 14 198.266 14 188C14 177.734 16.1571 168.862 20.4712 161.384C24.7854 153.906 30.7035 148.139 38.2257 144.084C45.7478 140.028 54.3392 138 64 138C73.6608 138 82.2522 140.028 89.7743 144.084C97.2965 148.139 103.215 153.906 107.529 161.384C111.843 168.862 114 177.734 114 188ZM100.726 188C100.726 179.572 99.0848 172.458 95.8031 166.66C92.5583 160.861 88.1519 156.473 82.5841 153.494C77.0531 150.516 70.8584 149.027 64 149.027C57.1416 149.027 50.9285 150.516 45.3606 153.494C39.8296 156.473 35.4233 160.861 32.1416 166.66C28.8968 172.458 27.2743 179.572 27.2743 188C27.2743 196.428 28.8968 203.542 32.1416 209.34C35.4233 215.139 39.8296 219.527 45.3606 222.506C50.9285 225.484 57.1416 226.973 64 226.973C70.8584 226.973 77.0531 225.484 82.5841 222.506C88.1519 219.527 92.5583 215.139 95.8031 209.34C99.0848 203.542 100.726 196.428 100.726 188Z" stroke="black" stroke-width="8" mask="url(#path-1-outside-1_203_161)"/>
<path d="M35.25 14L64 54.8854L92.75 14H114L75.25 64L114 114H92.75L64 75.1979L35.25 114H14L52.125 64L14 14H35.25Z" stroke="black" stroke-width="8" mask="url(#path-1-outside-1_203_161)"/>
<path d="M159.25 14L188 54.8854L216.75 14H238L199.25 64L238 114H216.75L188 75.1979L159.25 114H138L176.125 64L138 14H159.25Z" stroke="black" stroke-width="8" mask="url(#path-1-outside-1_203_161)"/>
<path d="M159.25 262L188 302.885L216.75 262H238L199.25 312L238 362H216.75L188 323.198L159.25 362H138L176.125 312L138 262H159.25Z" stroke="black" stroke-width="8" mask="url(#path-1-outside-1_203_161)"/>
<path d="M283.25 138L312 178.885L340.75 138H362L323.25 188L362 238H340.75L312 199.198L283.25 238H262L300.125 188L262 138H283.25Z" stroke="black" stroke-width="8" mask="url(#path-1-outside-1_203_161)"/>
<path d="M35.25 262L64 302.885L92.75 262H114L75.25 312L114 362H92.75L64 323.198L35.25 362H14L52.125 312L14 262H35.25Z" stroke="black" stroke-width="8" mask="url(#path-1-outside-1_203_161)"/>
<path d="M238 188C238 198.266 235.843 207.138 231.529 214.616C227.215 222.094 221.296 227.861 213.774 231.916C206.252 235.972 197.661 238 188 238C178.339 238 169.748 235.972 162.226 231.916C154.704 227.861 148.785 222.094 144.471 214.616C140.157 207.138 138 198.266 138 188C138 177.734 140.157 168.862 144.471 161.384C148.785 153.906 154.704 148.139 162.226 144.084C169.748 140.028 178.339 138 188 138C197.661 138 206.252 140.028 213.774 144.084C221.296 148.139 227.215 153.906 231.529 161.384C235.843 168.862 238 177.734 238 188ZM224.726 188C224.726 179.572 223.085 172.458 219.803 166.66C216.558 160.861 212.152 156.473 206.584 153.494C201.053 150.516 194.858 149.027 188 149.027C181.142 149.027 174.928 150.516 169.361 153.494C163.83 156.473 159.423 160.861 156.142 166.66C152.897 172.458 151.274 179.572 151.274 188C151.274 196.428 152.897 203.542 156.142 209.34C159.423 215.139 163.83 219.527 169.361 222.506C174.928 225.484 181.142 226.973 188 226.973C194.858 226.973 201.053 225.484 206.584 222.506C212.152 219.527 216.558 215.139 219.803 209.34C223.085 203.542 224.726 196.428 224.726 188Z" stroke="black" stroke-width="8" mask="url(#path-1-outside-1_203_161)"/>
<path d="M362 312C362 322.266 359.843 331.138 355.529 338.616C351.215 346.094 345.296 351.861 337.774 355.916C330.252 359.972 321.661 362 312 362C302.339 362 293.748 359.972 286.226 355.916C278.704 351.861 272.785 346.094 268.471 338.616C264.157 331.138 262 322.266 262 312C262 301.734 264.157 292.862 268.471 285.384C272.785 277.906 278.704 272.139 286.226 268.084C293.748 264.028 302.339 262 312 262C321.661 262 330.252 264.028 337.774 268.084C345.296 272.139 351.215 277.906 355.529 285.384C359.843 292.862 362 301.734 362 312ZM348.726 312C348.726 303.572 347.085 296.458 343.803 290.66C340.558 284.861 336.152 280.473 330.584 277.494C325.053 274.516 318.858 273.027 312 273.027C305.142 273.027 298.928 274.516 293.361 277.494C287.83 280.473 283.423 284.861 280.142 290.66C276.897 296.458 275.274 303.572 275.274 312C275.274 320.428 276.897 327.542 280.142 333.34C283.423 339.139 287.83 343.527 293.361 346.506C298.928 349.484 305.142 350.973 312 350.973C318.858 350.973 325.053 349.484 330.584 346.506C336.152 343.527 340.558 339.139 343.803 333.34C347.085 327.542 348.726 320.428 348.726 312Z" stroke="black" stroke-width="8" mask="url(#path-1-outside-1_203_161)"/>
<path d="M362 64C362 74.2662 359.843 83.1381 355.529 90.616C351.215 98.0938 345.296 103.861 337.774 107.916C330.252 111.972 321.661 114 312 114C302.339 114 293.748 111.972 286.226 107.916C278.704 103.861 272.785 98.0938 268.471 90.616C264.157 83.1381 262 74.2662 262 64C262 53.7338 264.157 44.8619 268.471 37.384C272.785 29.9062 278.704 24.1394 286.226 20.0837C293.748 16.0279 302.339 14 312 14C321.661 14 330.252 16.0279 337.774 20.0837C345.296 24.1394 351.215 29.9062 355.529 37.384C359.843 44.8619 362 53.7338 362 64ZM348.726 64C348.726 55.5716 347.085 48.4582 343.803 42.6597C340.558 36.8612 336.152 32.4728 330.584 29.4943C325.053 26.5158 318.858 25.0266 312 25.0266C305.142 25.0266 298.928 26.5158 293.361 29.4943C287.83 32.4728 283.423 36.8612 280.142 42.6597C276.897 48.4582 275.274 55.5716 275.274 64C275.274 72.4284 276.897 79.5418 280.142 85.3403C283.423 91.1388 287.83 95.5273 293.361 98.5057C298.928 101.484 305.142 102.973 312 102.973C318.858 102.973 325.053 101.484 330.584 98.5057C336.152 95.5273 340.558 91.1388 343.803 85.3403C347.085 79.5418 348.726 72.4284 348.726 64Z" stroke="black" stroke-width="8" mask="url(#path-1-outside-1_203_161)"/>
</svg>
