<svg width="128" height="128" viewBox="0 0 128 128" fill="none" xmlns="http://www.w3.org/2000/svg">
<path d="M114 64C114 74.2662 111.843 83.1381 107.529 90.616C103.215 98.0938 97.2965 103.861 89.7743 107.916C82.2522 111.972 73.6608 114 64 114C54.3392 114 45.7478 111.972 38.2257 107.916C30.7035 103.861 24.7854 98.0938 20.4712 90.616C16.1571 83.1381 14 74.2662 14 64C14 53.7338 16.1571 44.8619 20.4712 37.384C24.7854 29.9062 30.7035 24.1394 38.2257 20.0837C45.7478 16.0279 54.3392 14 64 14C73.6608 14 82.2522 16.0279 89.7743 20.0837C97.2965 24.1394 103.215 29.9062 107.529 37.384C111.843 44.8619 114 53.7338 114 64ZM100.726 64C100.726 55.5716 99.0848 48.4582 95.8031 42.6597C92.5583 36.8612 88.1519 32.4728 82.5841 29.4943C77.0531 26.5158 70.8584 25.0266 64 25.0266C57.1416 25.0266 50.9285 26.5158 45.3606 29.4943C39.8296 32.4728 35.4233 36.8612 32.1416 42.6597C28.8968 48.4582 27.2743 55.5716 27.2743 64C27.2743 72.4284 28.8968 79.5418 32.1416 85.3403C35.4233 91.1388 39.8296 95.5273 45.3606 98.5057C50.9285 101.484 57.1416 102.973 64 102.973C70.8584 102.973 77.0531 101.484 82.5841 98.5057C88.1519 95.5273 92.5583 91.1388 95.8031 85.3403C99.0848 79.5418 100.726 72.4284 100.726 64Z" fill="black"/>
<path d="M4 2H2V4V124V126H4H124H126V124V4V2H124H4Z" stroke="black" stroke-width="4"/>
</svg>
